<?xml version="1.0" standalone="no"?>
<!DOCTYPE svg PUBLIC "-//W3C//DTD SVG 20010904//EN"
 "http://www.w3.org/TR/2001/REC-SVG-20010904/DTD/svg10.dtd">
<svg version="1.0" xmlns="http://www.w3.org/2000/svg"
 width="96.000000pt" height="96.000000pt" viewBox="0 0 96.000000 96.000000"
 preserveAspectRatio="xMidYMid meet">
<metadata>
Created by potrace 1.11, written by Peter Selinger 2001-2013
</metadata>
<g transform="translate(0.000000,96.000000) scale(0.100000,-0.100000)"
fill="#000000" stroke="none">
<path d="M387 870 c-113 -29 -218 -118 -270 -229 -28 -59 -31 -76 -32 -161 0
-86 3 -101 32 -162 41 -87 113 -160 200 -201 62 -29 77 -32 164 -32 90 0 99 2
171 38 151 74 231 210 224 378 -9 202 -172 366 -374 375 -42 2 -94 -1 -115 -6z"/>
</g>
</svg>
